<?xml version="1.0" encoding="UTF-8" standalone="no"?>
<!-- Created with Inkscape (http://www.inkscape.org/) -->

<svg
   xmlns:dc="http://purl.org/dc/elements/1.1/"
   xmlns:cc="http://creativecommons.org/ns#"
   xmlns:rdf="http://www.w3.org/1999/02/22-rdf-syntax-ns#"
   xmlns:svg="http://www.w3.org/2000/svg"
   xmlns="http://www.w3.org/2000/svg"
   xmlns:sodipodi="http://sodipodi.sourceforge.net/DTD/sodipodi-0.dtd"
   xmlns:inkscape="http://www.inkscape.org/namespaces/inkscape"
   width="210mm"
   height="297mm"
   viewBox="0 0 210 297"
   version="1.1"
   id="svg8"
   inkscape:version="0.92.4 (5da689c313, 2019-01-14)"
   sodipodi:docname="drawing.svg">
  <defs
     id="defs2" />
  <sodipodi:namedview
     id="base"
     pagecolor="#ffffff"
     bordercolor="#666666"
     borderopacity="1.0"
     inkscape:pageopacity="0.0"
     inkscape:pageshadow="2"
     inkscape:zoom="1.4"
     inkscape:cx="444.8223"
     inkscape:cy="773.54565"
     inkscape:document-units="mm"
     inkscape:current-layer="layer17"
     showgrid="false"
     inkscape:window-width="1440"
     inkscape:window-height="855"
     inkscape:window-x="0"
     inkscape:window-y="1"
     inkscape:window-maximized="1" />
  <metadata
     id="metadata5">
    <rdf:RDF>
      <cc:Work
         rdf:about="">
        <dc:format>image/svg+xml</dc:format>
        <dc:type
           rdf:resource="http://purl.org/dc/dcmitype/StillImage" />
        <dc:title />
      </cc:Work>
    </rdf:RDF>
  </metadata>
  <g
     inkscape:groupmode="layer"
     id="layer3"
     inkscape:label="head"
     sodipodi:insensitive="true">
    <ellipse
       style="fill:#00aa00;fill-opacity:1;stroke-width:0.16912694"
       id="path67"
       cx="157.2381"
       cy="109.5238"
       rx="14.363095"
       ry="7.5595231" />
    <ellipse
       style="fill:#00aa00;fill-opacity:1;stroke-width:0.26458332"
       id="path69"
       cx="171.6012"
       cy="105.74404"
       rx="15.875"
       ry="9.8273811" />
  </g>
  <g
     inkscape:groupmode="layer"
     id="layer5"
     inkscape:label="mouth"
     sodipodi:insensitive="true">
    <path
       style="fill:none;stroke:#000000;stroke-width:0.26336911px;stroke-linecap:butt;stroke-linejoin:miter;stroke-opacity:1"
       d="m 183.06856,112.4421 c -4.01669,-1.72168 -5.13438,-3.36024 -5.13438,-3.36024 z"
       id="path127"
       inkscape:connector-curvature="0" />
    <path
       style="fill:#000000;fill-opacity:1;stroke-width:0.26458332"
       id="path135"
       d="m 181.4273,111.57637 c -0.03,0.002 -0.0588,-0.005 -0.0875,-0.013 -0.0236,-0.008 -0.0474,-0.0153 -0.0696,-0.0264 -0.0133,-0.005 -0.0242,-0.0135 -0.0356,-0.0216 -0.01,-0.005 -0.0205,-0.008 -0.029,-0.0144 -0.008,-0.004 -0.0134,-0.009 -0.0198,-0.0143 -0.002,5.2e-4 -0.002,-0.003 -0.004,-0.003 -5.3e-4,-2e-5 -8e-4,0.002 -0.001,10e-4 -0.002,-0.002 -0.005,-0.007 -0.007,-0.01 -2.4e-4,1.9e-4 -5.3e-4,8e-4 -7.9e-4,5.3e-4 -0.004,-0.004 -0.003,-0.004 -0.006,-0.008 -0.002,-0.003 -0.007,-0.005 -0.0102,-0.007 -0.0106,-0.009 -0.0211,-0.019 -0.0316,-0.0286 -0.009,-0.005 -0.0157,-0.0132 -0.0235,-0.0198 -0.002,-0.002 -0.004,-0.002 -0.006,-0.004 -0.002,-0.002 -0.004,-0.003 -0.005,-0.005 -0.002,-0.001 -0.004,-0.002 -0.005,-0.003 -0.002,-0.002 -0.004,-0.004 -0.006,-0.006 -0.008,-0.007 -0.0149,-0.008 -0.0228,-0.017 -0.0136,-0.01 -0.0244,-0.0219 -0.0366,-0.0332 -0.0105,-0.0121 -0.0239,-0.0202 -0.0352,-0.0313 -0.009,-0.007 -0.019,-0.0134 -0.0277,-0.0212 -0.007,-0.004 -0.0126,-0.009 -0.0176,-0.0157 -0.002,-0.007 -0.008,-0.007 -0.0117,-0.0115 -0.006,-0.003 0.002,10e-4 -0.005,-0.004 -0.001,-7.9e-4 -0.003,5.3e-4 -0.004,-2.6e-4 -0.0183,-0.0174 0.002,-8e-4 -0.006,-0.007 -0.005,-5.3e-4 -0.005,-0.003 -0.008,-0.008 -0.001,-0.002 -0.004,-0.002 -0.005,-0.003 -0.003,-0.008 -0.008,-0.004 -0.0126,-0.007 -0.002,-0.002 -0.004,-0.004 -0.006,-0.005 -0.003,-0.006 -0.007,-0.003 -0.0106,-0.004 -0.002,-7.9e-4 -0.006,-0.005 -0.007,-0.007 -0.009,-2.5e-4 -0.008,-7.9e-4 -0.0159,-0.005 -0.0174,-0.009 0.0115,0.01 -0.0116,-0.006 -0.006,-0.005 -0.0168,-0.007 -0.0225,-0.0108 -0.023,-0.0138 0.007,7.9e-4 -0.0116,-0.008 -0.009,-0.006 -0.0195,-0.008 -0.0284,-0.0134 -0.004,-0.002 -0.0102,-0.008 -0.0139,-0.0116 -0.007,-0.003 -0.012,-0.009 -0.0179,-0.0134 -0.008,-0.006 -0.003,2.5e-4 -0.0116,-0.005 -0.002,-10e-4 -0.004,-0.004 -0.006,-0.005 -0.0105,-0.004 -0.0197,-0.0114 -0.0294,-0.0173 -0.004,-0.007 -0.005,-0.004 -0.009,-0.006 -0.004,-0.002 -0.005,-0.006 -0.008,-0.008 -0.007,5.3e-4 -0.01,-0.007 -0.0157,-0.008 -0.001,-0.002 -0.003,2.7e-4 -0.005,-5.3e-4 -0.002,-0.001 -0.003,-0.003 -0.005,-0.004 -0.005,-0.003 -0.005,-0.001 -0.0121,-0.006 -0.0138,-0.005 -0.024,-0.0112 -0.0353,-0.0205 -0.008,-0.003 -0.015,-0.007 -0.0226,-0.0108 -0.003,-10e-4 -0.005,-10e-4 -0.008,-0.003 -0.0203,-0.0111 0.005,-10e-4 -0.0142,-0.008 -0.008,-0.008 -0.02,-0.0109 -0.0298,-0.0163 -0.005,-0.003 -0.009,-0.007 -0.0141,-0.0101 -0.0135,-0.007 -0.0246,-0.0161 -0.0348,-0.027 -0.01,-0.0108 -0.0218,-0.0199 -0.0298,-0.0323 -0.01,-0.0103 -0.0166,-0.0226 -0.0271,-0.0322 -0.009,-0.0123 -0.0218,-0.021 -0.0302,-0.034 -0.0115,-0.0117 -0.0243,-0.0218 -0.0375,-0.0314 -0.01,-0.004 -0.017,-0.0119 -0.0254,-0.0177 -0.003,-0.002 -0.006,-0.003 -0.009,-0.004 -0.007,-0.004 -0.0136,-0.009 -0.0198,-0.013 -0.0189,-0.009 -0.0388,-0.0162 -0.0565,-0.028 -0.0154,-0.009 -0.0318,-0.0151 -0.0459,-0.0261 -0.0178,-0.008 -0.0334,-0.0186 -0.0505,-0.0276 -0.0248,-0.0159 -0.0521,-0.0271 -0.0772,-0.0423 -0.0359,-0.0257 -0.0755,-0.0455 -0.1132,-0.0685 -0.0228,-0.0139 -0.0479,-0.0239 -0.0704,-0.0384 -0.0102,-0.007 -0.0196,-0.0142 -0.0293,-0.0213 -0.0286,-0.0197 -0.0556,-0.0415 -0.0829,-0.063 -0.0371,-0.0334 -0.073,-0.068 -0.10991,-0.10163 -0.0251,-0.0199 -0.0448,-0.0457 -0.0687,-0.0669 -0.008,-0.007 -0.0174,-0.0138 -0.0259,-0.0207 -0.0145,-0.0139 -0.0329,-0.0228 -0.0478,-0.0358 -0.0108,-0.008 -0.0224,-0.0144 -0.0329,-0.0226 -0.0123,-0.008 -0.0234,-0.0168 -0.0358,-0.0245 -0.007,-0.003 -0.0104,-0.009 -0.017,-0.012 -0.002,-7.9e-4 -0.004,-0.001 -0.006,-0.002 -0.0219,-0.0129 0.006,10e-4 -0.012,-0.008 -0.0178,-0.0132 -0.0376,-0.0233 -0.0563,-0.0352 -0.0326,-0.0194 -0.064,-0.0407 -0.0953,-0.062 -0.029,-0.0183 -0.0579,-0.0366 -0.085,-0.0577 -0.0187,-0.0118 -0.0368,-0.0244 -0.0545,-0.0376 -0.0108,-0.008 -0.0215,-0.015 -0.0325,-0.0224 -0.009,-0.005 -0.0189,-0.01 -0.0286,-0.0152 -0.01,-0.006 -0.0191,-0.008 -0.0308,-0.008 -0.0433,0.001 -0.0973,0.0523 0.0961,-0.0603 -0.001,0.005 -8e-4,0.0101 -8e-4,0.0152 -2.6e-4,0.007 0.006,0.0119 0.01,0.0175 0.005,0.008 0.01,0.0148 0.0136,0.0229 0.005,0.005 0.004,0.0134 0.01,0.0168 0.004,0.006 0.009,0.0109 0.0141,0.0164 0.004,0.008 0.011,0.0138 0.0172,0.0203 0.007,0.003 0.0108,0.01 0.0184,0.0129 0.001,7.9e-4 0.002,0.001 0.003,0.002 0.001,0.002 0.002,0.004 0.003,0.005 0.003,0.004 0.002,-0.002 0.009,0.006 0.002,0.004 0.01,0.001 0.0117,0.003 0.002,0.002 0.003,0.004 0.004,0.006 5.3e-4,8e-5 0.001,-1.3e-4 0.002,2.5e-4 0.002,0.001 0.003,0.003 0.005,0.004 0.007,0.005 0.0178,0.008 0.0254,0.0116 0.0113,0.005 0.0241,0.008 0.0351,0.0138 0.0221,0.0116 -0.005,-1.4e-4 0.0156,0.008 0.0143,0.005 0.0265,0.0147 0.0405,0.0196 0.0111,0.008 0.0249,0.013 0.0357,0.0219 0.01,0.005 0.0171,0.0131 0.0265,0.0183 0.008,0.01 0.0178,0.0176 0.0267,0.0264 0.009,0.008 0.0171,0.0172 0.026,0.0256 0.007,0.004 0.011,0.0124 0.0178,0.0164 0.004,0.002 0.004,0.007 0.006,0.0101 7.9e-4,0.001 0.005,0.003 0.006,0.004 0.006,0.004 0.012,0.009 0.018,0.0132 0.0102,0.008 0.0204,0.0159 0.0306,0.0238 0.0107,0.006 0.0197,0.0154 0.0296,0.0231 0.0102,0.007 0.0193,0.0156 0.0298,0.0223 0.006,0.004 0.009,0.009 0.0131,0.0139 0.004,0.005 0.008,0.006 0.0124,0.0113 0.007,0.005 0.0127,0.0109 0.0196,0.016 0.006,0.005 0.011,0.0102 0.0167,0.0152 0.006,0.004 0.009,0.0119 0.0148,0.016 0.007,0.004 0.0136,0.01 0.0207,0.0139 0.004,0.006 0.0117,0.009 0.0173,0.0136 0.003,0.003 0.006,0.007 0.01,0.01 0.0103,0.008 0.0207,0.0147 0.0308,0.0225 0.003,0.005 0.01,0.007 0.0143,0.0107 0.005,0.004 0.0102,0.01 0.015,0.0147 0.009,0.005 0.0156,0.0131 0.0243,0.0183 0.008,0.007 0.0159,0.0114 0.0235,0.0181 0.007,0.009 0.0163,0.0135 0.0241,0.0208 0.006,0.003 0.014,0.0142 0.0197,0.015 0.005,0.008 0.0127,0.01 0.0197,0.0151 0.008,0.008 0.0164,0.0147 0.0247,0.022 0.0117,0.0103 0.0237,0.0203 0.0369,0.0285 0.0184,0.0129 0.0366,0.026 0.0548,0.0392 0.0154,0.007 0.0281,0.0187 0.0427,0.0271 0.029,0.0167 -0.01,-0.008 0.0192,0.0109 0.0152,0.0128 0.0312,0.0243 0.0474,0.0358 0.012,0.003 0.0192,0.014 0.0288,0.021 0.005,0.004 0.0105,0.006 0.0155,0.01 0.008,0.004 0.0139,0.012 0.021,0.0176 0.006,0.005 0.014,0.008 0.0204,0.0122 0.013,0.006 0.0241,0.0163 0.0378,0.0201 0.0148,0.0105 0.0313,0.0182 0.0474,0.0263 0.0203,0.009 0.0384,0.0222 0.0593,0.0298 0.0133,0.005 0.0245,0.0143 0.0368,0.0211 0.005,0.001 0.007,0.005 0.0109,0.009 0.002,0.002 0.002,-0.002 0.008,0.003 0.005,0.005 0.0108,0.008 0.0154,0.0135 0.004,0.003 0.007,0.008 0.0107,0.0119 0.002,0.001 0.004,0.002 0.005,0.003 0.003,0.005 0.007,0.006 0.0114,0.009 0.003,0.004 0.007,0.006 0.0101,0.009 0.003,-8e-4 0.0103,0.005 0.0126,0.007 0.006,0.002 0.009,0.009 0.0138,0.0118 0.001,0.002 0.002,0.004 0.003,0.005 8e-4,5.2e-4 0.002,-2.7e-4 0.003,-3e-5 0.002,5.3e-4 0.004,0.002 0.005,0.003 0.006,0.003 0.0116,0.007 0.0179,0.01 0.007,0.005 0.0153,0.005 0.0224,0.01 0.008,0.005 0.001,0.003 0.009,0.004 0.0106,10e-4 0.0251,0.009 0.0347,0.0146 0.007,2.3e-4 0.0119,0.005 0.0178,0.008 0.004,0.002 0.01,0.003 0.0142,0.005 0.008,0.002 0.0155,0.005 0.0225,0.009 0.006,-0.002 0.007,0.002 0.0109,0.005 0.003,0.002 0.007,0.002 0.01,0.003 0.0358,0.0261 0.074,0.0488 0.11128,0.0728 0.0694,0.0487 0.14416,0.0888 0.21678,0.13233 0.0359,0.0185 0.0704,0.0397 0.10657,0.0576 0.022,0.01 0.0118,0.005 0.0307,0.0144 0.007,0.0103 0.0231,0.009 0.0304,0.0174 0.003,0.005 0.009,0.005 0.0143,0.0103 0.002,4e-5 0.003,-2.7e-4 0.005,1.3e-4 0.003,7.9e-4 0.005,0.003 0.008,0.004 0.0134,0.005 0.0273,0.009 0.0408,0.0138 0.029,0.006 0.0577,0.0148 0.0857,0.025 0.021,0.004 0.0404,0.0142 0.0615,0.0171 0.006,5.3e-4 0.0135,0.002 0.0186,0.006 0.008,0.005 8e-4,0.003 0.006,0.004 0.008,0.003 0.0129,0.0104 0.02,0.0144 0.007,0.002 0.0102,0.009 0.0151,0.013 7.9e-4,7.9e-4 0.002,10e-4 0.003,0.002 0.002,0.002 0.003,0.003 0.004,0.005 0.006,0.005 0.009,0.0137 0.0139,0.0194 0.002,0.002 0.005,0.003 0.007,0.005 0.005,0.007 0.0116,0.0125 0.0165,0.0195 0.0109,0.007 0.0174,0.0177 0.0259,0.0269 0.009,0.0128 0.0211,0.0219 0.0313,0.0334 0.006,0.008 0.0142,0.0148 0.0208,0.0225 0.0108,0.006 0.0193,0.0162 0.0297,0.0234 0.002,7.9e-4 0.004,10e-4 0.005,0.002 0.002,0.002 0.004,0.004 0.006,0.005 2.2e-4,1.5e-4 0.0101,0.004 0.0106,0.004 0.006,0.006 0.003,0.004 0.008,0.008 0.007,0.002 0.01,0.009 0.0152,0.0126 0.001,0.002 0.003,-0.001 0.004,-0.001 0.003,7.9e-4 0.007,0.006 0.009,0.008 0.005,5.2e-4 0.007,0.006 0.011,0.008 0.002,0.001 0.004,-7e-5 0.006,2.5e-4 0.005,0.005 0.012,0.006 0.017,0.01 0.002,0 0.003,-5.3e-4 0.004,-0.002 -0.0357,0.0228 -0.0702,0.0477 -0.10714,0.0685 -0.002,10e-4 -0.004,-0.004 -0.006,-0.005 -0.002,-0.002 -0.005,-0.003 -0.007,-0.004 -0.0224,-0.0134 -0.0436,-0.0293 -0.0669,-0.041 -0.0246,-0.0157 -0.0512,-0.0274 -0.0778,-0.0392 -0.0321,-0.0166 -0.0635,-0.0339 -0.0934,-0.0542 -0.0333,-0.0247 -0.0662,-0.0496 -0.10065,-0.0727 -0.0296,-0.0194 -0.059,-0.0389 -0.0867,-0.0609 -0.022,-0.0174 -0.0434,-0.0354 -0.0633,-0.0553 -0.0155,-0.0107 -0.0293,-0.0244 -0.0454,-0.0342 -0.0144,-0.0114 -0.0304,-0.0204 -0.0446,-0.0321 -0.0104,-0.006 -0.0194,-0.0144 -0.0293,-0.021 -0.002,-0.002 -0.005,-0.003 -0.008,-0.004 -0.003,-0.002 -0.006,-0.004 -0.008,-0.006 -0.0188,-0.009 -0.0355,-0.0216 -0.0537,-0.0318 -0.01,-0.004 -0.0173,-0.0124 -0.0263,-0.0177 -0.003,-0.002 -0.006,-0.002 -0.009,-0.004 -0.007,-0.004 -0.0127,-0.008 -0.0192,-0.012 -0.0219,-0.0137 -0.0421,-0.0296 -0.0646,-0.0424 -0.018,-0.0119 -0.035,-0.0252 -0.0521,-0.0382 -0.0146,-0.0122 -0.0294,-0.024 -0.0432,-0.0371 -0.0143,-0.0117 -0.0296,-0.0214 -0.044,-0.0328 -0.0159,-0.0116 -0.0323,-0.0221 -0.049,-0.0324 -0.0131,-0.009 -0.0282,-0.0153 -0.0417,-0.0242 -0.0132,-0.006 -0.0257,-0.0136 -0.0389,-0.0201 -0.0157,-0.008 -0.0316,-0.0155 -0.0483,-0.0212 -0.0161,-0.008 -0.0328,-0.0145 -0.0492,-0.0219 -0.006,-0.005 -0.0135,-0.005 -0.0203,-0.007 -0.005,-0.002 -0.009,-0.004 -0.0136,-0.006 -0.001,-2.7e-4 -0.003,-2.7e-4 -0.004,-8e-4 -0.002,-7.9e-4 -0.003,-0.002 -0.004,-0.003 -0.003,-0.002 -0.002,10e-4 -0.006,2.6e-4 -0.002,-2.6e-4 -0.006,-0.003 -0.008,-0.004 -0.006,-0.004 -0.0119,-0.007 -0.0165,-0.012 -0.007,-0.003 -0.0134,-0.007 -0.0197,-0.0109 -0.006,-0.005 -0.0105,-0.0102 -0.0174,-0.0132 -0.005,-2.2e-4 -0.006,-0.005 -0.01,-0.007 -0.001,-5.3e-4 -0.002,4e-5 -0.003,-2.7e-4 -0.003,-0.001 -0.006,-0.003 -0.009,-0.005 -0.002,-0.001 -0.003,-0.002 -0.005,-0.003 -0.0133,-0.007 0.006,0.004 -0.008,-0.002 -0.006,-0.002 -0.0116,-0.008 -0.0167,-0.0115 -0.0136,-0.008 -0.0278,-0.0149 -0.0406,-0.0246 -0.007,-0.003 -0.014,-0.008 -0.0212,-0.0115 -0.007,-0.003 -0.0126,-0.004 -0.0191,-0.008 -0.0116,-0.003 -0.0187,-0.0145 -0.0292,-0.0184 -0.006,5e-5 -0.008,-0.005 -0.0125,-0.007 -0.003,-0.002 -0.01,-0.002 -0.0138,-0.004 -0.0117,-0.005 -0.0219,-0.0124 -0.0322,-0.0195 -0.007,-7.9e-4 -0.0127,-0.006 -0.0191,-0.009 -0.006,-0.003 -0.0129,-0.005 -0.0193,-0.008 -0.0138,-0.007 -0.0285,-0.0119 -0.0415,-0.0205 -0.002,-0.001 -0.004,-0.003 -0.006,-0.004 -0.005,-0.002 -0.007,-10e-4 -0.0115,-0.003 -0.006,-0.002 -0.0105,-0.006 -0.0168,-0.008 -0.0131,-0.006 -0.0234,-0.0174 -0.0367,-0.023 -0.009,-0.006 -0.0191,-0.009 -0.0276,-0.0157 -0.0118,-0.009 -0.001,-0.003 -0.0125,-0.008 -0.01,-0.006 -0.0175,-0.0162 -0.0286,-0.0194 -0.008,-0.01 -0.0159,-0.0157 -0.0259,-0.0232 -0.01,-0.007 -0.0194,-0.0144 -0.027,-0.0232 -0.01,-0.008 -0.0189,-0.0183 -0.0304,-0.0246 -0.003,-0.005 -0.009,-0.007 -0.0131,-0.01 -0.004,-0.003 -0.005,-0.007 -0.009,-0.009 -0.004,-0.005 -0.01,-0.004 -0.0142,-0.007 -0.001,-2.6e-4 -0.002,-2.6e-4 -0.003,-10e-4 -0.002,-0.001 -0.002,-0.003 -0.004,-0.004 -8e-4,-8e-4 -0.004,5.2e-4 -0.004,2.6e-4 -0.002,-0.001 -0.004,-0.003 -0.006,-0.005 -10e-4,-0.001 -0.002,-0.002 -0.004,-0.003 -0.001,-5.3e-4 -0.002,2.2e-4 -0.003,-2.1e-4 -0.006,-0.002 -0.0118,-0.008 -0.0171,-0.0121 -0.01,-0.007 -0.0203,-0.0134 -0.0307,-0.0199 -0.01,-0.005 -0.0178,-0.0133 -0.0271,-0.0193 -0.001,-0.002 -0.003,-0.004 -0.004,-0.005 -0.001,-8e-4 -0.003,-5.3e-4 -0.004,-0.001 -0.006,-0.004 -0.0113,-0.009 -0.018,-0.0127 -0.01,-0.006 -0.0175,-0.0147 -0.027,-0.0211 -0.009,-0.007 -0.0183,-0.0143 -0.0269,-0.0223 -0.009,-0.009 -0.0172,-0.0172 -0.0269,-0.0248 -0.0107,-0.006 -0.0195,-0.0138 -0.0293,-0.0206 -0.0109,-0.009 -0.0218,-0.0187 -0.0343,-0.0256 -0.0105,-0.006 -0.0206,-0.0129 -0.031,-0.0196 -0.009,-0.006 -0.0178,-0.0118 -0.0266,-0.0182 -0.007,-0.006 -0.0149,-0.0109 -0.0217,-0.0172 -0.006,-0.001 -0.008,-0.011 -0.0145,-0.0104 -0.005,-0.005 -0.0109,-0.0102 -0.0177,-0.0139 -0.008,-0.008 -0.0175,-0.0152 -0.0275,-0.0214 -0.0108,-0.005 -0.0192,-0.0133 -0.0294,-0.0192 -0.004,-0.005 -0.01,-0.006 -0.0149,-0.008 -0.006,-0.003 -0.0104,-0.006 -0.0163,-0.009 -0.002,-5.3e-4 -0.003,-8e-4 -0.005,-0.002 -0.002,-0.001 -0.004,-0.003 -0.005,-0.005 -0.005,-0.004 -0.012,-0.006 -0.0177,-0.009 -0.0109,-0.003 -0.0209,-0.008 -0.0301,-0.015 -0.0123,-0.005 -0.0228,-0.0132 -0.0352,-0.0181 -0.0129,-0.006 -0.0243,-0.0149 -0.0365,-0.0222 -0.0113,-0.005 -0.0175,-0.0152 -0.0271,-0.0221 -0.004,-0.003 -0.005,-0.008 -0.01,-0.01 -7.9e-4,-2.7e-4 -0.002,10e-6 -0.003,-5.3e-4 -0.002,-0.002 -0.004,-0.004 -0.006,-0.005 -0.007,-0.004 -0.0123,-0.012 -0.018,-0.0179 -0.008,-0.01 -0.0163,-0.018 -0.024,-0.0273 -0.008,-0.005 -0.0122,-0.0189 -0.0198,-0.0229 -0.005,-0.009 -0.0132,-0.015 -0.0204,-0.0219 -0.0142,-0.0135 -0.0303,-0.0245 -0.0451,-0.0372 -0.0235,-0.015 -0.0445,-0.0317 -0.0662,-0.0489 -0.0176,-0.013 -0.0363,-0.0243 -0.055,-0.0356 -0.002,-0.001 -0.005,-0.002 -0.007,-0.003 -0.0104,-0.007 -0.002,-0.004 -0.0119,-0.009 -0.006,-0.003 -0.0105,-0.004 -0.0163,-0.008 -0.009,-0.005 -0.0191,-0.009 -0.0291,-0.0128 -0.002,-0.002 -0.007,5.3e-4 -0.009,-10e-4 -0.0343,-0.0253 0.0694,-0.0494 0.10509,-0.0728 0.0124,-0.001 0.0232,0.005 0.0344,0.01 0.0378,0.01 0.0743,0.0238 0.11105,0.0369 0.0485,0.0162 0.0962,0.0341 0.14341,0.0538 0.0347,0.0129 0.0656,0.0338 0.0986,0.0498 0.0181,0.0118 0.0369,0.0234 0.0533,0.0376 0.0109,0.005 0.0166,0.0165 0.0259,0.0233 0.004,0.005 0.009,0.009 0.0124,0.0142 0.003,0.005 0.004,0.0107 0.004,0.0166 -5.3e-4,-0.003 0.006,0.009 0.008,0.0105 0.004,0.008 0.0105,0.0161 0.0169,0.0232 0.007,0.007 0.0121,0.0182 0.0195,0.0242 0.005,0.007 0.0109,0.0112 0.0153,0.018 0.004,0.005 0.008,0.008 0.0118,0.0138 0.004,0.004 0.008,0.008 0.0111,0.0128 0.007,0.009 0.0165,0.0163 0.0243,0.0248 0.0227,0.0252 0.0425,0.0528 0.0618,0.0806 0.031,0.0437 0.0656,0.0846 0.10003,0.12566 0.0222,0.0288 0.0474,0.0546 0.0756,0.0774 0.015,0.0109 0.0283,0.0238 0.0419,0.0362 0.008,0.009 0.0188,0.0151 0.0277,0.023 0.008,0.009 0.004,0.005 0.0124,0.0119 0.0149,0.01 0.0289,0.0207 0.0435,0.031 0.0175,0.0151 0.0361,0.029 0.0541,0.0435 0.0274,0.0213 0.0539,0.0439 0.0822,0.064 0.0328,0.0232 0.0683,0.0428 0.10385,0.0615 0.0274,0.0103 0.0508,0.0284 0.078,0.0389 0.018,0.01 0.0378,0.0149 0.056,0.024 0.009,0.007 0.0198,0.01 0.0298,0.0148 0.0151,0.007 0.0293,0.0165 0.0444,0.0239 0.0529,0.0325 0.10976,0.0577 0.16449,0.0868 0.0502,0.0235 0.0985,0.051 0.14889,0.0742 0.0151,0.0102 0.0319,0.0174 0.0473,0.027 0.0201,0.0125 -0.002,7.9e-4 0.0155,0.01 0.0132,0.007 0.0252,0.0155 0.0394,0.0199 0.01,0.007 0.0206,0.0105 0.0306,0.0169 0.01,0.001 0.0168,0.008 0.0266,0.01 0.0187,0.0125 -0.005,-0.003 0.0116,0.006 0.002,0.001 0.005,0.003 0.007,0.005 0.007,0.004 0.0144,0.005 0.0214,0.008 0.0209,0.009 0.0426,0.0159 0.0642,0.0228 0.0233,0.01 0.0466,0.0185 0.0684,0.0311 0.003,10e-4 0.007,0.002 0.0104,0.004 0.003,0.002 0.006,0.004 0.009,0.006 0.0107,0.006 0.022,0.0112 0.0326,0.0178 0.0147,0.008 0.0278,0.0176 0.0425,0.0251 0.006,0.005 0.0139,0.007 0.0202,0.0113 0.006,0.004 0.009,0.008 0.0157,0.0111 0.006,0.007 0.0135,0.0108 0.0196,0.0175 5.2e-4,0.005 0.004,7.9e-4 0.006,0.002 0.005,0.004 0.003,0.006 0.009,0.007 0.007,0.005 0.0132,0.01 0.0192,0.0156 0.0113,0.005 0.022,0.0125 0.0323,0.0198 0.0131,0.0126 0.0295,0.0211 0.0435,0.0325 0.0137,0.0111 0.0263,0.0232 0.0395,0.0348 0.0145,0.01 0.0258,0.0234 0.0392,0.0346 0.0122,0.008 0.0221,0.0207 0.0358,0.0269 0.008,0.008 0.0168,0.0163 0.0259,0.0234 0.007,10e-4 0.009,0.008 0.0134,0.0119 10e-4,0.001 0.003,0.002 0.005,0.003 0.005,5.3e-4 0.005,0.004 0.008,0.008 8e-4,7.9e-4 0.002,0.001 0.003,0.002 0.003,0.005 0.008,0.007 0.0116,0.0114 0.0128,0.007 0.0254,0.0134 0.0379,0.0206 0.0193,0.009 0.0378,0.019 0.0558,0.03 0.008,0.006 0.0171,0.009 0.0252,0.0132 0.007,0.004 0.0122,0.009 0.0195,0.012 0.002,0.002 0.004,0.004 0.006,0.005 0.003,0.002 0.008,0.003 0.0105,0.005 0.004,0.003 0.006,0.007 0.0108,0.009 0.006,0.003 0.0108,2.7e-4 0.0164,0.004 0.003,-5.3e-4 0.004,0.008 0.007,0.008 5.3e-4,3e-5 -6e-5,-0.001 2e-4,-0.001 2.4e-4,-2.6e-4 0.002,-5.3e-4 0.002,-5.3e-4 0,0 -0.10249,0.0715 -0.10249,0.0715 v 0 c -0.004,-0.002 -0.007,-0.006 -0.01,-0.008 -0.007,5.3e-4 -0.0129,-0.002 -0.0181,-0.007 -0.008,-0.007 -0.0168,-0.0129 -0.0265,-0.0179 -0.0148,-0.009 -0.0291,-0.0184 -0.0445,-0.0263 -0.0179,-0.011 -0.0366,-0.0206 -0.0555,-0.0297 -0.0135,-0.007 -0.0281,-0.0133 -0.0405,-0.0223 -0.005,-0.003 -0.008,-0.007 -0.0119,-0.011 -0.004,-0.003 -0.006,-0.006 -0.0107,-0.009 -0.006,-0.005 -0.0108,-0.0117 -0.0183,-0.0154 -0.008,-0.007 -0.0159,-0.0148 -0.0243,-0.0218 -0.013,-0.009 -0.0247,-0.0192 -0.0366,-0.0292 -0.0132,-0.0115 -0.025,-0.0245 -0.0393,-0.0347 -0.013,-0.0115 -0.0256,-0.0233 -0.0391,-0.0343 -0.0143,-0.0109 -0.0299,-0.02 -0.0437,-0.0317 -0.0108,-0.008 -0.0228,-0.0135 -0.0338,-0.021 -0.005,-0.005 -0.011,-0.009 -0.0171,-0.0122 -0.006,-0.004 -0.0114,-0.008 -0.0167,-0.0127 -0.006,-0.005 -0.0121,-0.01 -0.0176,-0.0149 -0.0116,-0.008 -0.0225,-0.0164 -0.0351,-0.0224 -0.0144,-0.008 -0.0283,-0.0172 -0.0426,-0.0256 -0.0171,-0.009 -0.0339,-0.0195 -0.0513,-0.0283 -0.0216,-0.0116 -0.0443,-0.0206 -0.0671,-0.0292 -0.0219,-0.007 -0.044,-0.0141 -0.0652,-0.0232 -0.0137,-0.005 -0.0264,-0.0114 -0.0399,-0.0167 -0.01,-0.004 -0.019,-0.008 -0.0282,-0.0123 -0.01,-0.005 -0.0198,-0.01 -0.0295,-0.0152 -0.0139,-0.006 -0.0266,-0.0146 -0.04,-0.0218 -0.02,-0.0125 -0.0399,-0.0254 -0.0603,-0.0374 -0.0491,-0.0248 -0.0966,-0.0527 -0.1462,-0.0764 -0.0556,-0.0285 -0.11231,-0.0547 -0.1672,-0.0846 -0.0255,-0.012 -0.0508,-0.0244 -0.0758,-0.0373 -0.0186,-0.008 -0.0374,-0.015 -0.0554,-0.024 -0.0265,-0.0124 -0.0506,-0.029 -0.0775,-0.0406 -0.0355,-0.0198 -0.0715,-0.0391 -0.10445,-0.0629 -0.0285,-0.0203 -0.0557,-0.0426 -0.0836,-0.0638 -0.0184,-0.0139 -0.0366,-0.0282 -0.0546,-0.0426 -0.0147,-0.0108 -0.0298,-0.0209 -0.0444,-0.0319 -0.0132,-0.012 -0.027,-0.0233 -0.0403,-0.0352 -0.0133,-0.0125 -0.0268,-0.0246 -0.0408,-0.0363 -0.0276,-0.0243 -0.0521,-0.0514 -0.0743,-0.0808 -0.0338,-0.042 -0.0693,-0.0825 -0.10124,-0.12592 -0.0197,-0.0269 -0.0395,-0.054 -0.0632,-0.0776 -0.009,-0.008 -0.018,-0.0161 -0.026,-0.0252 -0.004,-0.005 -0.008,-0.01 -0.012,-0.0139 -0.003,-0.005 -0.009,-0.008 -0.0113,-0.0136 -0.004,-0.006 -0.01,-0.0106 -0.0141,-0.0163 -0.007,-0.008 -0.0129,-0.0167 -0.0196,-0.0249 -0.006,-0.007 -0.0124,-0.0144 -0.0172,-0.0225 -0.005,-0.006 -0.008,-0.0124 -0.0122,-0.0184 0,-0.004 2.6e-4,-0.007 -7.9e-4,-0.0106 -0.003,-0.004 -0.007,-0.007 -0.0106,-0.0116 -0.008,-0.008 -0.0151,-0.0172 -0.0248,-0.0234 -0.0158,-0.0134 -0.0331,-0.0253 -0.0507,-0.036 -0.0316,-0.0178 -0.0626,-0.0365 -0.0963,-0.0501 -0.0468,-0.0198 -0.0943,-0.0374 -0.14241,-0.0535 -0.0378,-0.0125 -0.0754,-0.0256 -0.11399,-0.0352 -0.0111,-0.004 -0.0214,-0.006 -0.0331,-0.005 0.0331,-0.0233 0.0668,-0.0459 0.0993,-0.07 7.9e-4,-5.3e-4 -0.002,-10e-4 -0.002,-0.002 6e-5,-0.002 0.007,0.004 0.0105,0.004 0.0103,0.004 0.02,0.01 0.0298,0.0149 0.0122,0.006 0.0233,0.013 0.0345,0.0206 0.0186,0.012 0.0375,0.0237 0.055,0.0374 0.007,0.006 0.0134,0.0119 0.0205,0.0173 0.0148,0.0112 0.0316,0.0196 0.0459,0.0315 0.0156,0.0123 0.0316,0.0238 0.0465,0.0371 0.007,0.006 0.0154,0.0125 0.0204,0.021 0.008,0.008 0.0123,0.018 0.0208,0.0253 0.008,0.009 0.0163,0.0172 0.0238,0.0265 0.005,0.006 0.0104,0.0123 0.0175,0.0164 0.006,0.005 0.0132,0.01 0.0184,0.0163 0.008,0.008 0.0153,0.0162 0.0257,0.021 0.0115,0.007 0.023,0.015 0.0355,0.0208 0.0125,0.006 0.0243,0.0134 0.0367,0.0197 0.009,0.006 0.0195,0.009 0.0294,0.0138 0.009,0.005 0.018,0.0105 0.0272,0.0153 0.011,0.006 0.0222,0.0111 0.0321,0.0184 0.01,0.007 0.019,0.0138 0.0294,0.0195 0.01,0.007 0.0185,0.0137 0.0276,0.0208 0.006,0.004 0.0112,0.009 0.0171,0.0124 0.006,0.004 0.0102,0.01 0.0165,0.0138 0.007,0.006 0.0138,0.0111 0.021,0.0163 0.008,0.006 0.0174,0.0116 0.026,0.0176 0.0101,0.007 0.0203,0.0129 0.0304,0.0195 0.0122,0.008 0.0235,0.0171 0.0349,0.0262 0.01,0.007 0.0195,0.0144 0.0295,0.0211 0.01,0.008 0.0185,0.0166 0.0274,0.0254 0.009,0.007 0.0177,0.0148 0.027,0.0216 0.008,0.007 0.0167,0.0136 0.0257,0.0197 0.009,0.006 0.0185,0.0125 0.0267,0.0198 0.009,0.007 0.0173,0.0129 0.0265,0.0186 0.0107,0.006 0.0211,0.0134 0.0314,0.0203 0.008,0.005 0.0157,0.01 0.024,0.0144 0.005,0.003 0.0111,0.005 0.0166,0.008 0.006,2.7e-4 0.0107,0.006 0.0153,0.01 0.007,0.006 0.0136,0.0131 0.0214,0.0186 0.0115,0.008 0.0219,0.0177 0.0323,0.0272 0.008,0.008 0.0162,0.0151 0.0256,0.0212 0.009,0.006 0.0164,0.014 0.0247,0.0211 0.0102,0.006 0.0193,0.0135 0.0288,0.0204 0.013,0.008 0.0258,0.0171 0.0399,0.0239 0.012,0.007 0.023,0.0162 0.0361,0.0216 0.0119,0.006 0.0247,0.01 0.0355,0.0172 0.0128,0.008 0.0275,0.0122 0.0405,0.0195 0.0132,0.006 0.0265,0.0116 0.0394,0.0183 0.01,0.006 0.0194,0.0132 0.0307,0.0167 0.01,0.003 0.0186,0.008 0.0277,0.0127 0.009,0.007 0.0184,0.0139 0.029,0.0188 0.0135,0.007 0.0281,0.0118 0.0406,0.0207 0.013,0.009 0.0272,0.0156 0.0404,0.024 0.009,0.006 0.0194,0.01 0.029,0.0151 0.008,0.004 0.0156,0.008 0.0233,0.013 0.006,0.004 0.012,0.009 0.0177,0.0135 0.007,0.004 0.0146,0.008 0.0208,0.0127 0.005,0.003 0.009,0.007 0.0148,0.009 0.007,0.002 0.0144,0.004 0.0211,0.007 0.0109,0.005 0.0225,0.009 0.0332,0.014 0.0163,0.007 0.0322,0.0148 0.0486,0.0216 0.0165,0.007 0.0332,0.0136 0.0491,0.0219 0.0135,0.006 0.0265,0.0141 0.0397,0.0212 0.0138,0.008 0.0283,0.0152 0.0414,0.0243 0.017,0.0104 0.0331,0.0222 0.0495,0.0337 0.0149,0.0113 0.0308,0.0212 0.0447,0.0337 0.0138,0.0126 0.0282,0.0243 0.0426,0.0362 0.0165,0.013 0.0331,0.026 0.0509,0.0372 0.0218,0.0137 0.0422,0.0293 0.0644,0.0424 0.0185,0.0107 0.0367,0.0217 0.0546,0.0333 0.0182,0.0109 0.0358,0.0227 0.0545,0.0327 0.0155,0.0105 0.0313,0.0205 0.0462,0.0319 0.0142,0.0112 0.0299,0.0201 0.0442,0.0311 0.0157,0.0117 0.0311,0.0239 0.0459,0.0367 0.0194,0.0195 0.0405,0.0371 0.0618,0.0545 0.0274,0.0217 0.0566,0.0409 0.0854,0.0607 0.0342,0.0233 0.0671,0.0484 0.10072,0.0726 0.03,0.0193 0.061,0.0365 0.0933,0.0518 0.0268,0.0118 0.0532,0.0247 0.0783,0.04 0.023,0.0128 0.0449,0.0276 0.0679,0.0404 0.008,0.005 0.014,0.008 0.0139,0.008 -0.0512,0.0419 -0.0663,0.0948 -0.10522,0.0689 -0.006,-10e-4 -0.01,-0.006 -0.0152,-0.007 -0.007,-0.003 -0.0139,-0.009 -0.0202,-0.0135 -0.004,-0.003 -0.009,-0.002 -0.0122,-0.007 -0.004,-0.005 -0.009,-0.009 -0.0144,-0.012 -0.009,-0.008 -0.0199,-0.0129 -0.0296,-0.02 -0.0103,-0.008 -0.0207,-0.0167 -0.0312,-0.025 -0.007,-0.007 -0.014,-0.0151 -0.0208,-0.0229 -0.0102,-0.0115 -0.0221,-0.0211 -0.0312,-0.0334 -0.008,-0.01 -0.0163,-0.0198 -0.0268,-0.0276 -0.005,-0.006 -0.0105,-0.0116 -0.0154,-0.0178 -0.008,-0.008 -0.014,-0.0165 -0.021,-0.0252 -0.007,-0.006 -0.0136,-0.013 -0.0218,-0.0175 -0.006,-0.005 -0.0125,-0.01 -0.0198,-0.0135 -0.006,-0.005 -0.0136,-0.006 -0.0208,-0.007 -0.0206,-0.005 -0.0404,-0.0139 -0.061,-0.0195 -0.0283,-0.01 -0.0572,-0.0173 -0.0861,-0.0246 -0.0192,-0.006 -0.0388,-0.0117 -0.0572,-0.02 -0.006,-0.003 -0.0111,-0.006 -0.0153,-0.0109 -0.008,-0.002 -0.0184,-0.0111 -0.0265,-0.0162 -0.0444,-0.025 -0.089,-0.0497 -0.13289,-0.0757 -0.0722,-0.0444 -0.1471,-0.0845 -0.2174,-0.13203 -0.0383,-0.0227 -0.0768,-0.0454 -0.11551,-0.0672 -0.008,-0.003 -0.0145,-0.007 -0.0223,-0.009 -0.007,-0.003 -0.0141,-0.006 -0.0214,-0.008 -0.0113,-0.004 -0.0216,-0.01 -0.0328,-0.0139 -0.0109,-0.005 -0.0219,-0.0102 -0.0337,-0.0128 -0.0106,-0.005 -0.0216,-0.01 -0.0321,-0.0154 -0.0108,-0.006 -0.0232,-0.0106 -0.0319,-0.0192 -0.004,-0.004 -0.009,-0.008 -0.0136,-0.0114 -0.005,-0.003 -0.0101,-0.004 -0.0139,-0.008 -0.003,-0.003 -0.006,-0.005 -0.009,-0.008 -0.004,-0.003 -0.007,-0.006 -0.0108,-0.009 -0.006,-0.005 -0.0114,-0.0109 -0.0169,-0.0165 -0.005,-0.004 -0.009,-0.007 -0.014,-0.0109 -0.007,-7.9e-4 -0.0111,-0.01 -0.0184,-0.0118 -0.0105,-0.008 -0.0226,-0.014 -0.0345,-0.0198 -0.0202,-0.01 -0.0393,-0.0211 -0.0594,-0.0307 -0.0161,-0.008 -0.0321,-0.016 -0.0477,-0.0249 -0.0135,-0.007 -0.0262,-0.0147 -0.039,-0.0224 -0.0145,-0.009 -0.028,-0.0192 -0.0413,-0.0301 -0.0151,-0.0101 -0.0286,-0.0222 -0.0445,-0.0311 -0.0157,-0.0116 -0.0315,-0.023 -0.0467,-0.0353 -0.0209,-0.0127 -0.0413,-0.026 -0.062,-0.0389 -0.0182,-0.0131 -0.0366,-0.0258 -0.0552,-0.0383 -0.0135,-0.009 -0.0263,-0.0189 -0.0383,-0.0298 -0.008,-0.007 -0.0162,-0.0136 -0.0244,-0.0203 -0.007,-0.004 -0.0136,-0.008 -0.0191,-0.0143 -0.007,-0.006 -0.0139,-0.0116 -0.0209,-0.0173 -0.008,-0.007 -0.0169,-0.0125 -0.0238,-0.0206 -0.008,-0.006 -0.0161,-0.0106 -0.0232,-0.0173 -0.008,-0.007 -0.0167,-0.0134 -0.0251,-0.02 -0.009,-0.009 -0.0189,-0.0161 -0.0285,-0.0242 -0.0103,-0.008 -0.0214,-0.0151 -0.0315,-0.0234 -0.008,-0.008 -0.0176,-0.0138 -0.0261,-0.0213 -0.007,-0.005 -0.0153,-0.01 -0.0222,-0.0158 -0.005,-0.005 -0.009,-0.0105 -0.014,-0.0153 -0.006,-0.005 -0.0107,-0.01 -0.0163,-0.0145 -0.007,-0.006 -0.0136,-0.0127 -0.0208,-0.0186 -0.008,-0.008 -0.0157,-0.0152 -0.0237,-0.0225 -0.0101,-0.008 -0.0201,-0.0152 -0.03,-0.0229 -0.01,-0.008 -0.0192,-0.0163 -0.0297,-0.0233 -0.01,-0.008 -0.0205,-0.0152 -0.0306,-0.023 -0.007,-0.004 -0.0129,-0.01 -0.0193,-0.0145 -0.005,-0.004 -0.008,-0.009 -0.0112,-0.0136 -0.006,-0.006 -0.012,-0.0122 -0.0184,-0.0178 -0.008,-0.009 -0.0165,-0.0175 -0.0255,-0.0254 -0.009,-0.008 -0.017,-0.0162 -0.0257,-0.0243 -0.009,-0.006 -0.0174,-0.0132 -0.0267,-0.019 -0.0113,-0.007 -0.0225,-0.0136 -0.0342,-0.0196 -0.0135,-0.007 -0.0264,-0.0144 -0.0403,-0.0202 -0.0166,-0.008 -0.0336,-0.0158 -0.051,-0.0223 -0.0123,-0.006 -0.0255,-0.0107 -0.0357,-0.0201 0.002,0.004 -0.0147,-0.006 -0.0151,-0.008 -0.006,-0.002 -0.008,-0.008 -0.0137,-0.0108 -0.007,-0.005 -0.0132,-0.0113 -0.0202,-0.0165 -0.006,-0.007 -0.0133,-0.0122 -0.0177,-0.0202 -0.004,-0.005 -0.01,-0.01 -0.0135,-0.0155 -0.005,-0.006 -0.007,-0.0136 -0.0114,-0.0204 -0.004,-0.008 -0.008,-0.0148 -0.0131,-0.022 -0.005,-0.008 -0.013,-0.0141 -0.013,-0.0234 -2.3e-4,-0.006 -5.3e-4,-0.0115 -2.6e-4,-0.0172 0.0909,-0.0576 0.0673,-0.0729 0.11705,-0.0665 0.0121,0.002 0.0227,0.006 0.0333,0.0125 0.01,0.005 0.0198,0.0103 0.0293,0.0161 0.0113,0.007 0.0209,0.0165 0.0322,0.0236 0.0174,0.0135 0.0357,0.0257 0.0535,0.0384 0.0267,0.021 0.0553,0.0391 0.0837,0.0576 0.0314,0.0211 0.0626,0.0428 0.0959,0.061 0.0192,0.0112 0.0387,0.0219 0.0574,0.0339 0.0119,0.007 0.024,0.0142 0.0353,0.0226 0.0124,0.008 0.0237,0.0172 0.036,0.0252 0.0115,0.007 0.0225,0.0151 0.0335,0.0233 0.0156,0.0119 0.0317,0.0233 0.0462,0.0368 0.006,0.005 0.0207,0.0171 0.026,0.0222 0.0227,0.022 0.042,0.0474 0.067,0.0671 0.0369,0.0333 0.0726,0.0681 0.11067,0.10004 0.0276,0.0209 0.0549,0.0423 0.0832,0.0624 0.0309,0.0229 0.0645,0.041 0.0981,0.0595 0.038,0.0228 0.0772,0.0433 0.11416,0.0677 0.0255,0.0146 0.053,0.0257 0.078,0.0413 0.0173,0.01 0.0346,0.019 0.052,0.0285 0.0145,0.01 0.0305,0.0162 0.0452,0.0256 0.0183,0.0106 0.0381,0.0178 0.0563,0.0285 0.0183,0.0118 0.0365,0.0233 0.0546,0.0353 0.0141,0.0108 0.0287,0.0211 0.04,0.0349 0.008,0.012 0.0206,0.0196 0.0288,0.0315 0.0108,0.0105 0.0184,0.0235 0.0286,0.0346 0.008,0.0115 0.0196,0.0196 0.0284,0.0303 0.01,0.01 0.0213,0.018 0.0335,0.025 0.0135,0.009 0.0287,0.0157 0.0426,0.0246 0.0154,0.008 0.0313,0.0154 0.0463,0.0242 0.011,0.008 0.0233,0.0127 0.0352,0.0192 0.007,0.003 0.0136,0.007 0.0208,0.009 0.006,0.004 0.0121,0.007 0.0179,0.011 0.005,0.005 0.0113,0.008 0.0161,0.0133 0.01,0.006 0.0198,0.0122 0.0296,0.0183 0.0123,0.008 0.0246,0.0152 0.0359,0.0245 0.0121,0.0103 0.0273,0.015 0.0411,0.0226 0.0111,0.007 0.023,0.0122 0.0342,0.019 0.01,0.005 0.0208,0.007 0.0297,0.013 0.005,0.003 0.0124,0.004 0.0168,0.01 0.006,0.004 0.0136,0.006 0.0183,0.0118 0.006,0.004 0.008,0.009 0.0147,0.0127 0.004,0.004 0.009,0.007 0.0136,0.0105 0.006,0.002 0.01,0.009 0.0131,0.0137 0.004,0.006 0.0105,0.009 0.016,0.0138 0.009,0.007 0.0186,0.0145 0.0276,0.0222 0.0113,0.0109 0.0246,0.0194 0.0351,0.0313 0.0118,0.0118 0.0237,0.0232 0.0369,0.0333 0.0104,0.009 0.0234,0.0158 0.0334,0.0258 0.0111,0.01 0.0225,0.0195 0.0344,0.0286 0.0103,0.009 0.0202,0.0188 0.0312,0.0271 0.007,0.005 0.0134,0.0116 0.0198,0.018 0.003,0.004 0.007,0.006 0.0104,0.009 0.006,0.005 0.012,0.01 0.0189,0.0134 0.01,0.005 0.02,0.009 0.0291,0.0148 0.0106,0.008 0.0215,0.0152 0.0338,0.0202 0.0217,0.0101 0.044,0.019 0.0672,0.0253 0.0286,0.008 0.0573,0.0118 0.087,0.009 0,0 -0.10013,0.0727 -0.10013,0.0727 z"
       inkscape:connector-curvature="0" />
  </g>
  <g
     inkscape:groupmode="layer"
     id="layer4"
     inkscape:label="eye"
     sodipodi:insensitive="true">
    <ellipse
       style="fill:#000000;fill-opacity:1;stroke-width:0.2397273"
       id="path72"
       cx="204.99146"
       cy="3.8575034"
       rx="3.3545387"
       ry="1.7481399"
       transform="rotate(29.00381)" />
  </g>
  <g
     inkscape:groupmode="layer"
     id="layer2"
     inkscape:label="bottomHalf"
     style="display:inline"
     sodipodi:insensitive="true">
    <ellipse
       id="path44"
       cx="100.7867"
       cy="112.9256"
       rx="62.233131"
       ry="9.4494047"
       style="fill:#c8b7b7;stroke-width:0.27269375" />
  </g>
  <g
     inkscape:label="topHalf"
     inkscape:groupmode="layer"
     id="layer1"
     sodipodi:insensitive="true">
    <path
       sodipodi:type="star"
       id="path36"
       sodipodi:sides="3"
       sodipodi:cx="89.202377"
       sodipodi:cy="142.78571"
       sodipodi:r1="61.082638"
       sodipodi:r2="30.541315"
       sodipodi:arg1="0.6360755"
       sodipodi:arg2="1.6832731"
       inkscape:flatsided="true"
       inkscape:rounded="0.13"
       inkscape:randomized="0"
       d="m 138.33928,179.07142 c -8.17033,11.06399 -99.633176,0.73295 -105.129707,-11.87476 -5.496531,-12.60771 49.18184,-86.65134 62.848702,-85.107621 13.666865,1.54372 50.451335,85.918391 42.281005,96.982381 z"
       inkscape:transform-center-x="3.5306532"
       inkscape:transform-center-y="-2.5333954"
       style="fill:#008000;stroke-width:0.26458332"
       transform="matrix(1.1629705,0,0,0.25670909,0.87402996,68.557876)" />
  </g>
  <g
     inkscape:groupmode="layer"
     id="layer6"
     inkscape:label="backFin"
     sodipodi:insensitive="true">
    <path
       style="fill:#000000;fill-opacity:1;stroke-width:0.26458332"
       id="path142"
       sodipodi:type="arc"
       sodipodi:cx="49.845764"
       sodipodi:cy="45.098469"
       sodipodi:rx="3.3408689"
       sodipodi:ry="6.5481033"
       sodipodi:start="0"
       sodipodi:end="0.034906585"
       sodipodi:open="true"
       d="m 53.186633,45.098469 a 3.3408689,6.5481033 0 0 1 -0.002,0.228525" />
    <path
       style="fill:#000000;fill-opacity:1;stroke-width:0.26458332"
       id="path144"
       sodipodi:type="arc"
       sodipodi:cx="48.643051"
       sodipodi:cy="76.769913"
       sodipodi:rx="19.510675"
       sodipodi:ry="26.994221"
       sodipodi:start="0"
       sodipodi:end="0.034906585"
       sodipodi:open="true"
       d="m 68.153727,76.769913 a 19.510675,26.994221 0 0 1 -0.01189,0.942084" />
    <path
       style="fill:#00aa00;fill-opacity:1;stroke-width:0.44432306"
       d="m 50.813018,112.92657 -0.750721,0.45788 c -5.350297,3.26499 -7.632091,4.39064 -13.791716,6.80438 -4.059366,1.59073 -7.505296,2.96317 -7.657734,3.04931 -0.488087,0.27712 1.749707,3.82126 2.941261,4.65841 2.644911,1.85822 6.638983,2.23723 11.335392,1.07532 l 5.19e-4,5.2e-4 c 2.692085,-0.66604 8.612634,-4.56806 10.677051,-7.03685 2.130989,-2.54842 3.397719,-5.69493 3.522061,-8.48742 -1.860798,-0.11848 -4.019085,-0.30339 -6.276113,-0.52155 z"
       id="path152"
       inkscape:connector-curvature="0" />
  </g>
  <g
     inkscape:groupmode="layer"
     id="layer7"
     inkscape:label="frontFin"
     sodipodi:insensitive="true">
    <path
       style="fill:#00aa00;fill-opacity:1;stroke-width:0.27145287"
       d="m 148.92579,115.57359 c -1.81168,0.054 -3.81217,0.084 -5.92336,0.0944 l -34.30026,24.27608 a 13.181799,24.048547 50.838982 0 0 14.71755,5.26983 13.181799,24.048547 50.838982 0 0 20.87859,-14.77674 13.181799,24.048547 50.838982 0 0 4.62748,-14.86352 z"
       id="path109"
       inkscape:connector-curvature="0" />
  </g>
  <g
     inkscape:groupmode="layer"
     id="layer17"
     inkscape:label="wing">
    <g
       id="g935"
       transform="translate(63.512906,10.134488)">
      <path
         style="fill:#e9ddaf;fill-opacity:1;stroke:#e9ddaf;stroke-width:0.31674719px;stroke-linecap:butt;stroke-linejoin:miter;stroke-opacity:1"
         d="m 83.399597,95.733066 -6.6742,-14.240588 C 56.237897,73.483612 39.988647,62.930689 23.373892,45.881597 15.658511,83.834568 45.558737,85.963479 72.629067,86.705124 l 5.4509,10.580602 z"
         id="path907"
         inkscape:connector-curvature="0"
         sodipodi:nodetypes="cccccc" />
      <path
         style="opacity:1;fill:#e9ddaf;fill-opacity:1;stroke:#e9ddaf;stroke-width:0.29675853px;stroke-linecap:butt;stroke-linejoin:miter;stroke-opacity:1"
         d="M 72.374687,82.244174 C 54.884967,67.04444 27.488198,68.429015 18.91421,42.531218 37.104799,55.12125 53.549037,69.803349 73.485977,80.301314 Z"
         id="path909"
         inkscape:connector-curvature="0"
         sodipodi:nodetypes="cccc" />
      <path
         sodipodi:nodetypes="cccc"
         inkscape:connector-curvature="0"
         id="path911"
         d="M 71.760447,82.934292 C 54.004747,69.426094 26.858595,73.820856 17.469484,47.649098 35.942666,58.835416 52.642367,71.880546 72.888997,81.208048 Z"
         style="display:inline;opacity:1;fill:#e9ddaf;fill-opacity:1;stroke:#e9ddaf;stroke-width:0.28189075px;stroke-linecap:butt;stroke-linejoin:miter;stroke-opacity:1" />
      <path
         style="opacity:1;fill:#e9ddaf;fill-opacity:1;stroke:#e9ddaf;stroke-width:0.24572657px;stroke-linecap:butt;stroke-linejoin:miter;stroke-opacity:1"
         d="M 72.414327,82.172086 C 54.743317,71.871741 26.2111,73.320773 18.545068,55.149828 36.874761,63.716581 53.444757,73.706859 73.534137,80.850087 Z"
         id="path913"
         inkscape:connector-curvature="0"
         sodipodi:nodetypes="cccc" />
      <path
         sodipodi:nodetypes="cccc"
         inkscape:connector-curvature="0"
         id="path915"
         d="M 71.791637,82.932032 C 54.752507,74.263228 29.12294,82.353456 20.414792,60.805335 c 17.426593,6.83035 33.377035,15.503549 52.279735,20.49105 z"
         style="opacity:1;fill:#e9ddaf;fill-opacity:1;stroke:#e9ddaf;stroke-width:0.24878012px;stroke-linecap:butt;stroke-linejoin:miter;stroke-opacity:1" />
      <path
         style="opacity:1;fill:#e9ddaf;fill-opacity:1;stroke:#e9ddaf;stroke-width:0.2172609px;stroke-linecap:butt;stroke-linejoin:miter;stroke-opacity:1"
         d="M 70.963757,84.586438 C 54.878107,77.583184 30.682732,84.119024 22.461879,66.710975 38.913307,72.229 53.971187,79.235805 71.816117,83.26505 Z"
         id="path917"
         inkscape:connector-curvature="0"
         sodipodi:nodetypes="cccc" />
      <path
         sodipodi:nodetypes="cccc"
         inkscape:connector-curvature="0"
         id="path919"
         d="M 70.212457,85.928786 C 55.445337,80.773745 33.233236,85.584727 25.686239,72.770795 c 15.102918,4.061776 28.926518,9.219432 45.308708,12.185328 z"
         style="opacity:1;fill:#e9ddaf;fill-opacity:1;stroke:#e9ddaf;stroke-width:0.17859791px;stroke-linecap:butt;stroke-linejoin:miter;stroke-opacity:1" />
    </g>
  </g>
</svg>
